<svg width="5981" height="6133" viewBox="0 0 5981 6133" fill="none" xmlns="http://www.w3.org/2000/svg">
<path fill-rule="evenodd" clip-rule="evenodd" d="M2988.5 17.3936C2952.33 68.977 2716.7 381.098 2664.71 446.306C2594.67 534.149 2471.18 660.529 2425.47 691.154C2240.2 815.278 2083.34 806.886 1335.36 632.855C1254.76 614.098 1187.74 599.829 1186.42 601.14C1185.11 602.455 1173.96 678.436 1161.64 769.991C1105.1 1190.31 1074.41 1340.74 1015.57 1485.92C984.448 1562.72 945.83 1623.03 890.249 1681.64C768.346 1810.18 599.38 1900.23 174.076 2063.31C86.162 2097.02 13.5446 2125.29 12.7058 2126.13C11.8619 2126.98 46.1865 2173.39 88.9822 2229.27C254.174 2444.99 334.701 2574.53 391.671 2716.18C442.325 2842.13 460.006 2940.89 455.487 3072.65C451.367 3192.91 433.351 3270.03 377.434 3406.73C323.143 3539.46 232.671 3686.31 85.8842 3879.95C36.7142 3944.82 -1.90364 3999.36 0.0725958 4001.15C2.04883 4002.93 44.9494 4019.14 95.4037 4037.18C281.091 4103.55 368.276 4139.36 476.775 4193.8C626.723 4269.04 729.55 4340.33 821.421 4432.72C1018.11 4630.52 1105.49 4881.67 1156.94 5397.11C1164.11 5468.95 1171.24 5528.98 1172.79 5530.52C1174.33 5532.06 1237.44 5519.63 1313.03 5502.89C1689.13 5419.57 1847.78 5394.96 2008.87 5394.95C2207.65 5394.94 2357.63 5444.64 2517.21 5563.41C2572.83 5604.79 2690.61 5719.09 2759.58 5798.6C2788.35 5831.76 2857.82 5920.22 2913.97 5995.18C2970.12 6070.15 3017.91 6132.16 3020.16 6132.99C3022.42 6133.82 3061.46 6088.08 3106.9 6031.34C3219.62 5890.61 3286.32 5814.85 3376.46 5725.16C3674.18 5428.93 3914.61 5346.66 4294.12 5411.16C4412.6 5431.3 4518.69 5457.68 4728.3 5519.13C4792.61 5537.98 4845.99 5552.55 4846.92 5551.5C4847.85 5550.45 4853.81 5491.8 4860.15 5421.16C4896.99 5010.96 4947.06 4777.23 5038.14 4590.27C5082.89 4498.42 5125.52 4438.61 5191.1 4375.66C5309.54 4261.98 5425.81 4204.3 5827.12 4060.17C5910.51 4030.22 5979.74 4004.71 5980.97 4003.47C5982.21 4002.23 5938.5 3922.63 5883.85 3826.57C5704.69 3511.69 5644.88 3385.44 5606.98 3242.12C5588.45 3172.02 5583.54 3045.83 5596.6 2975.67C5625.76 2819.21 5704.58 2634.27 5900.39 2262.9C5942.91 2182.27 5978.11 2114.38 5978.62 2112.04C5979.13 2109.71 5881.66 2069.21 5762.01 2022.06C5331.92 1852.54 5215.97 1795.04 5119.66 1703.55C4977.9 1568.9 4931.18 1395.28 4875.87 797.534C4866.66 698.063 4858.29 615.755 4857.28 614.633C4856.25 613.506 4753.34 628.247 4628.56 647.386C4271.91 702.094 4168.55 713.627 4034.77 713.622C3827.77 713.611 3712.82 667.123 3518.43 504.793C3485.28 477.104 3355.22 352.198 3229.43 227.223L3000.7 0L2988.5 17.3936ZM3324.48 677.094C3508.61 838.805 3657.06 920.055 3833.85 955.875C3887.81 966.805 3907.14 967.895 4045.25 967.769C4159.04 967.669 4216.39 965.269 4273.28 958.228C4357.24 947.838 4593.3 914.508 4614.12 910.11L4627.34 907.316L4636.7 997.896C4684.08 1456.33 4751.33 1678.25 4891.65 1839.23C5008.74 1973.57 5165.5 2062.2 5573.3 2224.62C5597.8 2234.38 5617.14 2243.94 5616.27 2245.86C5615.4 2247.78 5584.31 2311.34 5547.18 2387.1C5432.22 2621.69 5377.44 2763.53 5350.59 2896.15C5295.09 3170.28 5349.85 3394.62 5569.77 3794.09C5589.01 3829.05 5604.75 3859.78 5604.75 3862.39C5604.75 3865 5582.93 3875.14 5556.26 3884.92C5117.75 4045.78 4911.01 4220.75 4774.52 4546.55C4713.81 4691.46 4664.22 4893.33 4634.99 5114.5C4628.9 5160.63 4622.94 5203.19 4621.75 5209.1C4619.62 5219.66 4618.58 5219.57 4552.29 5202.94C4262.76 5130.31 4042.88 5115.13 3847.55 5154.28C3681.09 5187.66 3512.3 5271.86 3348.07 5403.45C3289.81 5450.12 3123.78 5611.79 3061.89 5682.11L3028.31 5720.26L2997.64 5682.11C2833.25 5477.54 2654.18 5324.92 2478.97 5240.05C2327.67 5166.76 2193.97 5138.08 2003.55 5138.08C1865.13 5138.08 1703.02 5158.2 1483.98 5202.57L1396.94 5220.2L1387.84 5154.24C1345.11 4844.43 1269.01 4612.41 1150.47 4430.49C1012.18 4218.27 783.794 4041.77 475.449 3908.83C443.735 3895.16 415.926 3882.26 413.651 3880.18C411.376 3878.1 428.213 3847.12 451.063 3811.34C547.605 3660.16 620.212 3512.73 657.362 3392.43C663.149 3373.69 690.062 3274.48 690.062 3274.48C725.199 3125.06 723.066 2943.8 684.29 2784.52C646.821 2630.59 552.863 2433.04 442.98 2277.15C419.889 2244.4 419.889 2244.39 431.94 2239.31C789.199 2088.76 930.633 2006.98 1062.55 1874.66C1129.88 1807.13 1176.68 1741.14 1222.32 1649.39C1296.21 1500.86 1336.73 1348.05 1382.88 1043.92C1393.6 973.279 1402.73 914.943 1403.16 914.278C1403.59 913.617 1446.26 922.539 1497.97 934.109C1926.05 1029.87 2130.33 1051.29 2300.66 1018.27C2533.58 973.121 2688.62 845.495 2981.13 458.169L3028.31 395.698L3148.87 512.227C3215.18 576.318 3294.21 650.511 3324.48 677.094Z" fill="#FF0000"/>
<path fill-rule="evenodd" clip-rule="evenodd" d="M2988.5 17.3936C2952.33 68.977 2716.7 381.098 2664.71 446.306C2594.67 534.149 2471.18 660.529 2425.47 691.154C2240.2 815.278 2083.34 806.886 1335.36 632.855C1254.76 614.098 1187.74 599.829 1186.42 601.14C1185.11 602.455 1173.96 678.436 1161.64 769.991C1105.1 1190.31 1074.41 1340.74 1015.57 1485.92C984.448 1562.72 945.83 1623.03 890.249 1681.64C768.346 1810.18 599.38 1900.23 174.076 2063.31C86.162 2097.02 13.5446 2125.29 12.7058 2126.13C11.8619 2126.98 46.1865 2173.39 88.9822 2229.27C254.174 2444.99 334.701 2574.53 391.671 2716.18C442.325 2842.13 460.006 2940.89 455.487 3072.65C451.367 3192.91 433.351 3270.03 377.434 3406.73C323.143 3539.46 232.671 3686.31 85.8842 3879.95C36.7142 3944.82 -1.90364 3999.36 0.0725958 4001.15C2.04883 4002.93 44.9494 4019.14 95.4037 4037.18C281.091 4103.55 368.276 4139.36 476.775 4193.8C626.723 4269.04 729.55 4340.33 821.421 4432.72C1018.11 4630.52 1105.49 4881.67 1156.94 5397.11C1164.11 5468.95 1171.24 5528.98 1172.79 5530.52C1174.33 5532.06 1237.44 5519.63 1313.03 5502.89C1689.13 5419.57 1847.78 5394.96 2008.87 5394.95C2207.65 5394.94 2357.63 5444.64 2517.21 5563.41C2572.83 5604.79 2690.61 5719.09 2759.58 5798.6C2788.35 5831.76 2857.82 5920.22 2913.97 5995.18C2970.12 6070.15 3017.91 6132.16 3020.16 6132.99C3022.42 6133.82 3061.46 6088.08 3106.9 6031.34C3219.62 5890.61 3286.32 5814.85 3376.46 5725.16C3674.18 5428.93 3914.61 5346.66 4294.12 5411.16C4412.6 5431.3 4518.69 5457.68 4728.3 5519.13C4792.61 5537.98 4845.99 5552.55 4846.92 5551.5C4847.85 5550.45 4853.81 5491.8 4860.15 5421.16C4896.99 5010.96 4947.06 4777.23 5038.14 4590.27C5082.89 4498.42 5125.52 4438.61 5191.1 4375.66C5309.54 4261.98 5425.81 4204.3 5827.12 4060.17C5910.51 4030.22 5979.74 4004.71 5980.97 4003.47C5982.21 4002.23 5938.5 3922.63 5883.85 3826.57C5704.69 3511.69 5644.88 3385.44 5606.98 3242.12C5588.45 3172.02 5583.54 3045.83 5596.6 2975.67C5625.76 2819.21 5704.58 2634.27 5900.39 2262.9C5942.91 2182.27 5978.11 2114.38 5978.62 2112.04C5979.13 2109.71 5881.66 2069.21 5762.01 2022.06C5331.92 1852.54 5215.97 1795.04 5119.66 1703.55C4977.9 1568.9 4931.18 1395.28 4875.87 797.534C4866.66 698.063 4858.29 615.755 4857.28 614.633C4856.25 613.506 4753.34 628.247 4628.56 647.386C4271.91 702.094 4168.55 713.627 4034.77 713.622C3827.77 713.611 3712.82 667.123 3518.43 504.793C3485.28 477.104 3355.22 352.198 3229.43 227.223L3000.7 0L2988.5 17.3936ZM3324.48 677.094C3508.61 838.805 3657.06 920.055 3833.85 955.875C3887.81 966.805 3907.14 967.895 4045.25 967.769C4159.04 967.669 4216.39 965.269 4273.28 958.228C4357.24 947.838 4593.3 914.508 4614.12 910.11L4627.34 907.316L4636.7 997.896C4684.08 1456.33 4751.33 1678.25 4891.65 1839.23C5008.74 1973.57 5165.5 2062.2 5573.3 2224.62C5597.8 2234.38 5617.14 2243.94 5616.27 2245.86C5615.4 2247.78 5584.31 2311.34 5547.18 2387.1C5432.22 2621.69 5377.44 2763.53 5350.59 2896.15C5295.09 3170.28 5349.85 3394.62 5569.77 3794.09C5589.01 3829.05 5604.75 3859.78 5604.75 3862.39C5604.75 3865 5582.93 3875.14 5556.26 3884.92C5117.75 4045.78 4911.01 4220.75 4774.52 4546.55C4713.81 4691.46 4664.22 4893.33 4634.99 5114.5C4628.9 5160.63 4622.94 5203.19 4621.75 5209.1C4619.62 5219.66 4618.58 5219.57 4552.29 5202.94C4262.76 5130.31 4042.88 5115.13 3847.55 5154.28C3681.09 5187.66 3512.3 5271.86 3348.07 5403.45C3289.81 5450.12 3123.78 5611.79 3061.89 5682.11L3028.31 5720.26L2997.64 5682.11C2833.25 5477.54 2654.18 5324.92 2478.97 5240.05C2327.67 5166.76 2193.97 5138.08 2003.55 5138.08C1865.13 5138.08 1703.02 5158.2 1483.98 5202.57L1396.94 5220.2L1387.84 5154.24C1345.11 4844.43 1269.01 4612.41 1150.47 4430.49C1012.18 4218.27 783.794 4041.77 475.449 3908.83C443.735 3895.16 415.926 3882.26 413.651 3880.18C411.376 3878.1 428.213 3847.12 451.063 3811.34C547.605 3660.16 620.212 3512.73 657.362 3392.43C663.149 3373.69 690.062 3274.48 690.062 3274.48C725.199 3125.06 723.066 2943.8 684.29 2784.52C646.821 2630.59 552.863 2433.04 442.98 2277.15C419.889 2244.4 419.889 2244.39 431.94 2239.31C789.199 2088.76 930.633 2006.98 1062.55 1874.66C1129.88 1807.13 1176.68 1741.14 1222.32 1649.39C1296.21 1500.86 1336.73 1348.05 1382.88 1043.92C1393.6 973.279 1402.73 914.943 1403.16 914.278C1403.59 913.617 1446.26 922.539 1497.97 934.109C1926.05 1029.87 2130.33 1051.29 2300.66 1018.27C2533.58 973.121 2688.62 845.495 2981.13 458.169L3028.31 395.698L3148.87 512.227C3215.18 576.318 3294.21 650.511 3324.48 677.094Z" fill="black" fill-opacity="0.2"/>
<path d="M3324.48 677.094C3508.61 838.805 3657.06 920.055 3833.85 955.875C3887.81 966.805 3907.14 967.895 4045.25 967.769C4159.04 967.669 4216.39 965.269 4273.28 958.228C4357.24 947.838 4593.3 914.508 4614.12 910.11L4627.34 907.316L4636.7 997.896C4684.08 1456.33 4751.33 1678.25 4891.65 1839.23C5008.74 1973.57 5165.5 2062.2 5573.3 2224.62C5597.8 2234.38 5617.14 2243.94 5616.27 2245.86C5615.4 2247.78 5584.31 2311.34 5547.18 2387.1C5432.22 2621.69 5377.44 2763.53 5350.59 2896.15C5295.09 3170.28 5349.85 3394.62 5569.77 3794.09C5589.01 3829.05 5604.75 3859.78 5604.75 3862.39C5604.75 3865 5582.93 3875.14 5556.26 3884.92C5117.75 4045.78 4911.01 4220.75 4774.52 4546.55C4713.81 4691.46 4664.22 4893.33 4634.99 5114.5C4628.9 5160.63 4622.94 5203.19 4621.75 5209.1C4619.62 5219.66 4618.58 5219.57 4552.29 5202.94C4262.76 5130.31 4042.88 5115.13 3847.55 5154.28C3681.09 5187.66 3512.3 5271.86 3348.07 5403.45C3289.81 5450.12 3123.78 5611.79 3061.89 5682.11L3028.31 5720.26L2997.64 5682.11C2833.25 5477.54 2654.18 5324.92 2478.97 5240.05C2327.67 5166.76 2193.97 5138.08 2003.55 5138.08C1865.13 5138.08 1703.02 5158.2 1483.98 5202.57L1396.94 5220.2L1387.84 5154.24C1345.11 4844.43 1269.01 4612.41 1150.47 4430.49C1012.18 4218.27 783.794 4041.77 475.449 3908.83C443.735 3895.16 415.926 3882.26 413.651 3880.18C411.376 3878.1 428.213 3847.12 451.063 3811.34C547.605 3660.16 620.212 3512.73 657.362 3392.43C663.149 3373.69 690.062 3274.48 690.062 3274.48C725.199 3125.06 723.066 2943.8 684.29 2784.52C646.821 2630.59 552.863 2433.04 442.98 2277.15C419.889 2244.4 419.889 2244.39 431.94 2239.31C789.199 2088.76 930.633 2006.98 1062.55 1874.66C1129.88 1807.13 1176.68 1741.14 1222.32 1649.39C1296.21 1500.86 1336.73 1348.05 1382.88 1043.92C1393.6 973.279 1402.73 914.943 1403.16 914.278C1403.59 913.617 1446.26 922.539 1497.97 934.109C1926.05 1029.87 2130.33 1051.29 2300.66 1018.27C2533.58 973.121 2688.62 845.495 2981.13 458.169L3028.31 395.698L3148.87 512.227C3215.18 576.318 3294.21 650.511 3324.48 677.094Z" fill="#FF0000"/>
<path d="M3324.48 677.094C3508.61 838.805 3657.06 920.055 3833.85 955.875C3887.81 966.805 3907.14 967.895 4045.25 967.769C4159.04 967.669 4216.39 965.269 4273.28 958.228C4357.24 947.838 4593.3 914.508 4614.12 910.11L4627.34 907.316L4636.7 997.896C4684.08 1456.33 4751.33 1678.25 4891.65 1839.23C5008.74 1973.57 5165.5 2062.2 5573.3 2224.62C5597.8 2234.38 5617.14 2243.94 5616.27 2245.86C5615.4 2247.78 5584.31 2311.34 5547.18 2387.1C5432.22 2621.69 5377.44 2763.53 5350.59 2896.15C5295.09 3170.28 5349.85 3394.62 5569.77 3794.09C5589.01 3829.05 5604.75 3859.78 5604.75 3862.39C5604.75 3865 5582.93 3875.14 5556.26 3884.92C5117.75 4045.78 4911.01 4220.75 4774.52 4546.55C4713.81 4691.46 4664.22 4893.33 4634.99 5114.5C4628.9 5160.63 4622.94 5203.19 4621.75 5209.1C4619.62 5219.66 4618.58 5219.57 4552.29 5202.94C4262.76 5130.31 4042.88 5115.13 3847.55 5154.28C3681.09 5187.66 3512.3 5271.86 3348.07 5403.45C3289.81 5450.12 3123.78 5611.79 3061.89 5682.11L3028.31 5720.26L2997.64 5682.11C2833.25 5477.54 2654.18 5324.92 2478.97 5240.05C2327.67 5166.76 2193.97 5138.08 2003.55 5138.08C1865.13 5138.08 1703.02 5158.2 1483.98 5202.57L1396.94 5220.2L1387.84 5154.24C1345.11 4844.43 1269.01 4612.41 1150.47 4430.49C1012.18 4218.27 783.794 4041.77 475.449 3908.83C443.735 3895.16 415.926 3882.26 413.651 3880.18C411.376 3878.1 428.213 3847.12 451.063 3811.34C547.605 3660.16 620.212 3512.73 657.362 3392.43C663.149 3373.69 690.062 3274.48 690.062 3274.48C725.199 3125.06 723.066 2943.8 684.29 2784.52C646.821 2630.59 552.863 2433.04 442.98 2277.15C419.889 2244.4 419.889 2244.39 431.94 2239.31C789.199 2088.76 930.633 2006.98 1062.55 1874.66C1129.88 1807.13 1176.68 1741.14 1222.32 1649.39C1296.21 1500.86 1336.73 1348.05 1382.88 1043.92C1393.6 973.279 1402.73 914.943 1403.16 914.278C1403.59 913.617 1446.26 922.539 1497.97 934.109C1926.05 1029.87 2130.33 1051.29 2300.66 1018.27C2533.58 973.121 2688.62 845.495 2981.13 458.169L3028.31 395.698L3148.87 512.227C3215.18 576.318 3294.21 650.511 3324.48 677.094Z" fill="#FFFF00"/>
<path d="M4106 2689.41C4396.67 2857.23 4542 2941.14 4542 3067C4542 3192.86 4396.67 3276.77 4106 3444.59L2760.5 4221.41C2469.83 4389.23 2324.5 4473.14 2215.5 4410.21C2106.5 4347.27 2106.5 4179.46 2106.5 3843.82V2290.18C2106.5 1954.54 2106.5 1786.73 2215.5 1723.79C2324.5 1660.86 2469.83 1744.77 2760.5 1912.59L4106 2689.41Z" fill="black"/>
</svg>
