<svg width="147" height="151" viewBox="0 0 147 151" fill="none" xmlns="http://www.w3.org/2000/svg">
<path fill-rule="evenodd" clip-rule="evenodd" d="M73.4509 0.428247C72.5618 1.69827 66.7707 9.38298 65.4928 10.9885C63.7714 13.1512 60.7364 16.2628 59.6129 17.0168C55.0592 20.0729 51.2041 19.8663 32.8203 15.5815C30.8392 15.1197 29.192 14.7683 29.1597 14.8006C29.1275 14.833 28.8534 16.7037 28.5507 18.9579C27.161 29.3064 26.4067 33.0101 24.9605 36.5847C24.1956 38.4756 23.2464 39.9604 21.8804 41.4034C18.8843 44.5683 14.7315 46.7853 4.2784 50.8006C2.11768 51.6305 0.332896 52.3266 0.312282 52.3473C0.291539 52.3681 1.13516 53.5109 2.18699 54.8868C6.24703 60.1978 8.22623 63.3872 9.62643 66.8748C10.8714 69.9757 11.306 72.4075 11.1949 75.6515C11.0936 78.6124 10.6508 80.511 9.27651 83.8767C7.94214 87.1448 5.71854 90.7603 2.11085 95.5279C0.902355 97.1251 -0.0467873 98.4678 0.00178425 98.5118C0.0503558 98.5557 1.10476 98.9549 2.34482 99.3989C6.90861 101.033 9.05143 101.915 11.7181 103.255C15.4035 105.108 17.9308 106.863 20.1888 109.138C25.023 114.008 27.1704 120.191 28.4351 132.882C28.6113 134.65 28.7866 136.128 28.8246 136.166C28.8625 136.204 30.4135 135.898 32.2714 135.486C41.515 133.435 45.4144 132.829 49.3737 132.829C54.2593 132.828 57.9454 134.052 61.8676 136.976C63.2345 137.995 66.1294 140.809 67.8246 142.767C68.5315 143.583 70.2391 145.761 71.6191 147.607C72.9991 149.452 74.1736 150.979 74.2291 151C74.2846 151.02 75.2439 149.894 76.361 148.497C79.1313 145.032 80.7705 143.167 82.9861 140.959C90.3033 133.665 96.2125 131.64 105.54 133.228C108.452 133.723 111.059 134.373 116.211 135.886C117.792 136.35 119.104 136.709 119.127 136.683C119.15 136.657 119.296 135.213 119.452 133.474C120.357 123.374 121.588 117.62 123.827 113.017C124.926 110.755 125.974 109.283 127.586 107.733C130.497 104.934 133.355 103.514 143.218 99.965C145.267 99.2276 146.969 98.5995 146.999 98.569C147.03 98.5386 145.956 96.5787 144.612 94.2136C140.209 86.461 138.739 83.3526 137.807 79.8238C137.352 78.0981 137.231 74.9912 137.552 73.2637C138.269 69.4115 140.206 64.8582 145.019 55.7147C146.064 53.7294 146.929 52.058 146.942 52.0004C146.954 51.943 144.558 50.9459 141.618 49.7848C131.047 45.6112 128.197 44.1956 125.83 41.9431C122.346 38.6277 121.198 34.3531 119.838 19.636C119.612 17.1869 119.406 15.1604 119.381 15.1328C119.356 15.1051 116.827 15.468 113.76 15.9392C104.994 17.2862 102.454 17.5701 99.1659 17.57C94.0782 17.5698 91.253 16.4252 86.4754 12.4285C85.6605 11.7467 82.4641 8.67143 79.3723 5.59445L73.7507 0L73.4509 0.428247ZM81.7085 16.6707C86.2341 20.6521 89.8827 22.6526 94.2278 23.5345C95.5538 23.8036 96.0291 23.8304 99.4236 23.8273C102.22 23.8249 103.63 23.7658 105.028 23.5924C107.092 23.3366 112.893 22.516 113.405 22.4077L113.73 22.3389L113.96 24.5691C115.125 35.8561 116.777 41.3199 120.226 45.2835C123.104 48.5911 126.957 50.7731 136.98 54.7721C137.582 55.0125 138.057 55.2478 138.036 55.2951C138.014 55.3425 137.25 56.9073 136.338 58.7725C133.512 64.5484 132.166 68.0406 131.506 71.3057C130.142 78.0551 131.488 83.5786 136.893 93.414C137.366 94.2747 137.753 95.0313 137.753 95.0955C137.753 95.1598 137.216 95.4094 136.561 95.6503C125.783 99.6108 120.702 103.919 117.347 111.94C115.855 115.508 114.636 120.478 113.918 125.924C113.768 127.059 113.622 128.107 113.593 128.253C113.54 128.513 113.515 128.511 111.885 128.101C104.769 126.313 99.3653 125.939 94.5643 126.903C90.4733 127.725 86.3247 129.798 82.2882 133.038C80.8565 134.187 76.7757 138.167 75.2546 139.899L74.4292 140.838L73.6756 139.899C69.6351 134.862 65.2341 131.104 60.9278 129.015C57.2092 127.21 53.9231 126.504 49.2429 126.504C45.8409 126.504 41.8566 127 36.4731 128.092L34.3338 128.526L34.1101 126.902C33.0598 119.274 31.1896 113.562 28.276 109.083C24.8773 103.858 19.264 99.5121 11.6855 96.2389C10.906 95.9023 10.2226 95.5848 10.1666 95.5336C10.1107 95.4824 10.5246 94.7196 11.0862 93.8385C13.4589 90.1165 15.2435 86.4866 16.1565 83.5246C16.2988 83.0632 16.9602 80.6206 16.9602 80.6206C17.8238 76.9418 17.7714 72.479 16.8184 68.5574C15.8974 64.7674 13.5882 59.9038 10.8875 56.0655C10.32 55.2591 10.32 55.259 10.6162 55.1339C19.3968 51.4272 22.8729 49.4136 26.1153 46.1557C27.77 44.4931 28.9203 42.8683 30.042 40.6095C31.858 36.9525 32.854 33.1903 33.9882 25.7022C34.2517 23.963 34.476 22.5267 34.4866 22.5103C34.4973 22.4941 35.5459 22.7138 36.8169 22.9986C47.3381 25.3564 52.3589 25.8838 56.5453 25.0708C62.2698 23.9591 66.0805 20.8168 73.2696 11.2805L74.4292 9.74243L77.3924 12.6115C79.0222 14.1895 80.9644 16.0162 81.7085 16.6707Z" fill="#F84C21"/>
<path fill-rule="evenodd" clip-rule="evenodd" d="M73.4509 0.428247C72.5618 1.69827 66.7707 9.38298 65.4928 10.9885C63.7714 13.1512 60.7364 16.2628 59.6129 17.0168C55.0592 20.0729 51.2041 19.8663 32.8203 15.5815C30.8392 15.1197 29.192 14.7683 29.1597 14.8006C29.1275 14.833 28.8534 16.7037 28.5507 18.9579C27.161 29.3064 26.4067 33.0101 24.9605 36.5847C24.1956 38.4756 23.2464 39.9604 21.8804 41.4034C18.8843 44.5683 14.7315 46.7853 4.2784 50.8006C2.11768 51.6305 0.332896 52.3266 0.312282 52.3473C0.291539 52.3681 1.13516 53.5109 2.18699 54.8868C6.24703 60.1978 8.22623 63.3872 9.62643 66.8748C10.8714 69.9757 11.306 72.4075 11.1949 75.6515C11.0936 78.6124 10.6508 80.511 9.27651 83.8767C7.94214 87.1448 5.71854 90.7603 2.11085 95.5279C0.902355 97.1251 -0.0467873 98.4678 0.00178425 98.5118C0.0503558 98.5557 1.10476 98.9549 2.34482 99.3989C6.90861 101.033 9.05143 101.915 11.7181 103.255C15.4035 105.108 17.9308 106.863 20.1888 109.138C25.023 114.008 27.1704 120.191 28.4351 132.882C28.6113 134.65 28.7866 136.128 28.8246 136.166C28.8625 136.204 30.4135 135.898 32.2714 135.486C41.515 133.435 45.4144 132.829 49.3737 132.829C54.2593 132.828 57.9454 134.052 61.8676 136.976C63.2345 137.995 66.1294 140.809 67.8246 142.767C68.5315 143.583 70.2391 145.761 71.6191 147.607C72.9991 149.452 74.1736 150.979 74.2291 151C74.2846 151.02 75.2439 149.894 76.361 148.497C79.1313 145.032 80.7705 143.167 82.9861 140.959C90.3033 133.665 96.2125 131.64 105.54 133.228C108.452 133.723 111.059 134.373 116.211 135.886C117.792 136.35 119.104 136.709 119.127 136.683C119.15 136.657 119.296 135.213 119.452 133.474C120.357 123.374 121.588 117.62 123.827 113.017C124.926 110.755 125.974 109.283 127.586 107.733C130.497 104.934 133.355 103.514 143.218 99.965C145.267 99.2276 146.969 98.5995 146.999 98.569C147.03 98.5386 145.956 96.5787 144.612 94.2136C140.209 86.461 138.739 83.3526 137.807 79.8238C137.352 78.0981 137.231 74.9912 137.552 73.2637C138.269 69.4115 140.206 64.8582 145.019 55.7147C146.064 53.7294 146.929 52.058 146.942 52.0004C146.954 51.943 144.558 50.9459 141.618 49.7848C131.047 45.6112 128.197 44.1956 125.83 41.9431C122.346 38.6277 121.198 34.3531 119.838 19.636C119.612 17.1869 119.406 15.1604 119.381 15.1328C119.356 15.1051 116.827 15.468 113.76 15.9392C104.994 17.2862 102.454 17.5701 99.1659 17.57C94.0782 17.5698 91.253 16.4252 86.4754 12.4285C85.6605 11.7467 82.4641 8.67143 79.3723 5.59445L73.7507 0L73.4509 0.428247ZM81.7085 16.6707C86.2341 20.6521 89.8827 22.6526 94.2278 23.5345C95.5538 23.8036 96.0291 23.8304 99.4236 23.8273C102.22 23.8249 103.63 23.7658 105.028 23.5924C107.092 23.3366 112.893 22.516 113.405 22.4077L113.73 22.3389L113.96 24.5691C115.125 35.8561 116.777 41.3199 120.226 45.2835C123.104 48.5911 126.957 50.7731 136.98 54.7721C137.582 55.0125 138.057 55.2478 138.036 55.2951C138.014 55.3425 137.25 56.9073 136.338 58.7725C133.512 64.5484 132.166 68.0406 131.506 71.3057C130.142 78.0551 131.488 83.5786 136.893 93.414C137.366 94.2747 137.753 95.0313 137.753 95.0955C137.753 95.1598 137.216 95.4094 136.561 95.6503C125.783 99.6108 120.702 103.919 117.347 111.94C115.855 115.508 114.636 120.478 113.918 125.924C113.768 127.059 113.622 128.107 113.593 128.253C113.54 128.513 113.515 128.511 111.885 128.101C104.769 126.313 99.3653 125.939 94.5643 126.903C90.4733 127.725 86.3247 129.798 82.2882 133.038C80.8565 134.187 76.7757 138.167 75.2546 139.899L74.4292 140.838L73.6756 139.899C69.6351 134.862 65.2341 131.104 60.9278 129.015C57.2092 127.21 53.9231 126.504 49.2429 126.504C45.8409 126.504 41.8566 127 36.4731 128.092L34.3338 128.526L34.1101 126.902C33.0598 119.274 31.1896 113.562 28.276 109.083C24.8773 103.858 19.264 99.5121 11.6855 96.2389C10.906 95.9023 10.2226 95.5848 10.1666 95.5336C10.1107 95.4824 10.5246 94.7196 11.0862 93.8385C13.4589 90.1165 15.2435 86.4866 16.1565 83.5246C16.2988 83.0632 16.9602 80.6206 16.9602 80.6206C17.8238 76.9418 17.7714 72.479 16.8184 68.5574C15.8974 64.7674 13.5882 59.9038 10.8875 56.0655C10.32 55.2591 10.32 55.259 10.6162 55.1339C19.3968 51.4272 22.8729 49.4136 26.1153 46.1557C27.77 44.4931 28.9203 42.8683 30.042 40.6095C31.858 36.9525 32.854 33.1903 33.9882 25.7022C34.2517 23.963 34.476 22.5267 34.4866 22.5103C34.4973 22.4941 35.5459 22.7138 36.8169 22.9986C47.3381 25.3564 52.3589 25.8838 56.5453 25.0708C62.2698 23.9591 66.0805 20.8168 73.2696 11.2805L74.4292 9.74243L77.3924 12.6115C79.0222 14.1895 80.9644 16.0162 81.7085 16.6707Z" fill="black" fill-opacity="0.2"/>
<path d="M81.7085 16.6707C86.2341 20.6521 89.8827 22.6526 94.2278 23.5345C95.5538 23.8036 96.0291 23.8304 99.4236 23.8273C102.22 23.8249 103.63 23.7658 105.028 23.5924C107.092 23.3366 112.893 22.516 113.405 22.4077L113.73 22.3389L113.96 24.5691C115.125 35.8561 116.777 41.3199 120.226 45.2835C123.104 48.5911 126.957 50.7731 136.98 54.7721C137.582 55.0125 138.057 55.2478 138.036 55.2951C138.014 55.3425 137.25 56.9073 136.338 58.7725C133.512 64.5484 132.166 68.0406 131.506 71.3057C130.142 78.0551 131.488 83.5786 136.893 93.414C137.366 94.2747 137.753 95.0313 137.753 95.0955C137.753 95.1598 137.216 95.4094 136.561 95.6503C125.783 99.6108 120.702 103.919 117.347 111.94C115.855 115.508 114.636 120.478 113.918 125.924C113.768 127.059 113.622 128.107 113.593 128.253C113.54 128.513 113.515 128.511 111.885 128.101C104.769 126.313 99.3653 125.939 94.5643 126.903C90.4733 127.725 86.3247 129.798 82.2882 133.038C80.8565 134.187 76.7757 138.167 75.2546 139.899L74.4292 140.838L73.6756 139.899C69.6351 134.862 65.2341 131.104 60.9278 129.015C57.2092 127.21 53.9231 126.504 49.2429 126.504C45.8409 126.504 41.8566 127 36.4731 128.092L34.3338 128.526L34.1101 126.902C33.0598 119.274 31.1896 113.562 28.276 109.083C24.8773 103.858 19.264 99.5121 11.6855 96.2389C10.906 95.9023 10.2226 95.5848 10.1666 95.5336C10.1107 95.4824 10.5246 94.7196 11.0862 93.8385C13.4589 90.1165 15.2435 86.4866 16.1565 83.5246C16.2988 83.0632 16.9602 80.6206 16.9602 80.6206C17.8238 76.9418 17.7714 72.479 16.8184 68.5574C15.8974 64.7674 13.5882 59.9038 10.8875 56.0655C10.32 55.2591 10.32 55.259 10.6162 55.1339C19.3968 51.4272 22.8729 49.4136 26.1153 46.1557C27.77 44.4931 28.9203 42.8683 30.042 40.6095C31.858 36.9525 32.854 33.1903 33.9882 25.7022C34.2517 23.963 34.476 22.5267 34.4866 22.5103C34.4973 22.4941 35.5459 22.7138 36.8169 22.9986C47.3381 25.3564 52.3589 25.8838 56.5453 25.0708C62.2698 23.9591 66.0805 20.8168 73.2696 11.2805L74.4292 9.74243L77.3924 12.6115C79.0222 14.1895 80.9644 16.0162 81.7085 16.6707Z" fill="#F84C21"/>
<path d="M81.7085 16.6707C86.2341 20.6521 89.8827 22.6526 94.2278 23.5345C95.5538 23.8036 96.0291 23.8304 99.4236 23.8273C102.22 23.8249 103.63 23.7658 105.028 23.5924C107.092 23.3366 112.893 22.516 113.405 22.4077L113.73 22.3389L113.96 24.5691C115.125 35.8561 116.777 41.3199 120.226 45.2835C123.104 48.5911 126.957 50.7731 136.98 54.7721C137.582 55.0125 138.057 55.2478 138.036 55.2951C138.014 55.3425 137.25 56.9073 136.338 58.7725C133.512 64.5484 132.166 68.0406 131.506 71.3057C130.142 78.0551 131.488 83.5786 136.893 93.414C137.366 94.2747 137.753 95.0313 137.753 95.0955C137.753 95.1598 137.216 95.4094 136.561 95.6503C125.783 99.6108 120.702 103.919 117.347 111.94C115.855 115.508 114.636 120.478 113.918 125.924C113.768 127.059 113.622 128.107 113.593 128.253C113.54 128.513 113.515 128.511 111.885 128.101C104.769 126.313 99.3653 125.939 94.5643 126.903C90.4733 127.725 86.3247 129.798 82.2882 133.038C80.8565 134.187 76.7757 138.167 75.2546 139.899L74.4292 140.838L73.6756 139.899C69.6351 134.862 65.2341 131.104 60.9278 129.015C57.2092 127.21 53.9231 126.504 49.2429 126.504C45.8409 126.504 41.8566 127 36.4731 128.092L34.3338 128.526L34.1101 126.902C33.0598 119.274 31.1896 113.562 28.276 109.083C24.8773 103.858 19.264 99.5121 11.6855 96.2389C10.906 95.9023 10.2226 95.5848 10.1666 95.5336C10.1107 95.4824 10.5246 94.7196 11.0862 93.8385C13.4589 90.1165 15.2435 86.4866 16.1565 83.5246C16.2988 83.0632 16.9602 80.6206 16.9602 80.6206C17.8238 76.9418 17.7714 72.479 16.8184 68.5574C15.8974 64.7674 13.5882 59.9038 10.8875 56.0655C10.32 55.2591 10.32 55.259 10.6162 55.1339C19.3968 51.4272 22.8729 49.4136 26.1153 46.1557C27.77 44.4931 28.9203 42.8683 30.042 40.6095C31.858 36.9525 32.854 33.1903 33.9882 25.7022C34.2517 23.963 34.476 22.5267 34.4866 22.5103C34.4973 22.4941 35.5459 22.7138 36.8169 22.9986C47.3381 25.3564 52.3589 25.8838 56.5453 25.0708C62.2698 23.9591 66.0805 20.8168 73.2696 11.2805L74.4292 9.74243L77.3924 12.6115C79.0222 14.1895 80.9644 16.0162 81.7085 16.6707Z" fill="#FFED27"/>
<path d="M46.5258 47.1737C46.5258 43.7198 49.3208 40.9199 52.7686 40.9199H58.274C61.7218 40.9199 64.5168 43.7198 64.5168 47.1737V103.851C64.5168 107.305 61.7218 110.105 58.274 110.105H52.7686C49.3208 110.105 46.5258 107.305 46.5258 103.851V47.1737Z" fill="#231F20"/>
<path d="M82.5078 47.1737C82.5078 43.7198 85.3028 40.9199 88.7505 40.9199H94.256C97.7038 40.9199 100.499 43.7198 100.499 47.1737V103.851C100.499 107.305 97.7038 110.105 94.256 110.105H88.7505C85.3028 110.105 82.5078 107.305 82.5078 103.851V47.1737Z" fill="#231F20"/>
</svg>
