<svg width="148" height="152" viewBox="0 0 148 152" fill="none" xmlns="http://www.w3.org/2000/svg">
<path fill-rule="evenodd" clip-rule="evenodd" d="M73.9506 0.431083C73.0554 1.70952 67.2249 9.44512 65.9383 11.0612C64.2052 13.2383 61.1495 16.3705 60.0184 17.1295C55.4337 20.2058 51.5524 19.9978 33.0436 15.6846C31.049 15.2198 29.3906 14.8661 29.358 14.8986C29.3256 14.9312 29.0497 16.8143 28.7449 19.0834C27.3458 29.5005 26.5863 33.2288 25.1303 36.827C24.3602 38.7305 23.4046 40.2251 22.0292 41.6776C19.0127 44.8635 14.8317 47.0951 4.3075 51.137C2.13208 51.9724 0.335162 52.6731 0.314408 52.694C0.293524 52.7149 1.14289 53.8653 2.20187 55.2503C6.28953 60.5964 8.28219 63.807 9.69191 67.3177C10.9453 70.4391 11.3829 72.887 11.2711 76.1525C11.1691 79.133 10.7233 81.0442 9.33961 84.4322C7.99617 87.7219 5.75744 91.3613 2.1252 96.1605C0.908492 97.7683 -0.0471056 99.1199 0.00179639 99.1642C0.0506984 99.2084 1.11227 99.6103 2.36077 100.057C6.95561 101.702 9.113 102.59 11.7978 103.939C15.5083 105.804 18.0527 107.571 20.3261 109.86C25.1932 114.763 27.3553 120.987 28.6285 133.762C28.806 135.542 28.9824 137.03 29.0207 137.068C29.0588 137.106 30.6204 136.798 32.4909 136.383C41.7974 134.318 45.7234 133.709 49.7096 133.708C54.6285 133.708 58.3395 134.94 62.2884 137.883C63.6647 138.909 66.5792 141.742 68.286 143.712C68.9977 144.534 70.7169 146.726 72.1063 148.584C73.4957 150.442 74.6781 151.979 74.734 152C74.7899 152.02 75.7558 150.887 76.8804 149.48C79.6696 145.993 81.32 144.115 83.5507 141.892C90.9176 134.55 96.8671 132.511 106.258 134.11C109.19 134.609 111.815 135.263 117.002 136.786C118.593 137.253 119.914 137.614 119.937 137.588C119.96 137.562 120.108 136.108 120.265 134.358C121.176 124.191 122.415 118.399 124.669 113.765C125.776 111.489 126.831 110.006 128.454 108.446C131.385 105.629 134.262 104.199 144.192 100.627C146.256 99.8848 147.969 99.2524 147.999 99.2218C148.03 99.1911 146.948 97.2182 145.596 94.8375C141.163 87.0336 139.683 83.9046 138.745 80.3525C138.286 78.6153 138.165 75.4878 138.488 73.7489C139.21 69.8712 141.16 65.2877 146.005 56.0837C147.057 54.0852 147.929 52.4027 147.941 52.3448C147.954 52.287 145.542 51.2833 142.581 50.1145C131.938 45.9132 129.069 44.4882 126.686 42.2208C123.178 38.8835 122.022 34.5806 120.653 19.766C120.426 17.3008 120.219 15.2608 120.193 15.233C120.168 15.2051 117.621 15.5704 114.534 16.0448C105.709 17.4007 103.151 17.6865 99.8405 17.6864C94.7182 17.6861 91.8737 16.534 87.0637 12.5108C86.2433 11.8245 83.0251 8.72885 79.9122 5.6315L74.2524 0L73.9506 0.431083ZM82.2643 16.7811C86.8207 20.7889 90.4941 22.8026 94.8688 23.6904C96.2038 23.9612 96.6823 23.9883 100.1 23.9851C102.915 23.9827 104.335 23.9232 105.742 23.7487C107.82 23.4912 113.661 22.6651 114.177 22.5561L114.504 22.4869L114.735 24.7318C115.908 36.0935 117.572 41.5936 121.044 45.5834C123.942 48.9129 127.82 51.1094 137.911 55.1349C138.518 55.3768 138.996 55.6136 138.975 55.6613C138.953 55.709 138.184 57.2842 137.265 59.1617C134.42 64.9759 133.065 68.4912 132.401 71.778C131.027 78.572 132.382 84.1321 137.824 94.0327C138.3 94.899 138.69 95.6606 138.69 95.7253C138.69 95.79 138.15 96.0413 137.49 96.2837C126.639 100.271 121.523 104.607 118.146 112.682C116.643 116.273 115.416 121.276 114.693 126.757C114.542 127.901 114.395 128.956 114.365 129.102C114.313 129.364 114.287 129.362 112.647 128.95C105.482 127.149 100.041 126.773 95.2076 127.744C91.0887 128.571 86.9119 130.657 82.848 133.919C81.4065 135.076 77.2979 139.082 75.7665 140.825L74.9355 141.771L74.1768 140.825C70.1088 135.755 65.6778 131.973 61.3423 129.869C57.5984 128.053 54.2899 127.342 49.5779 127.342C46.1527 127.342 42.1413 127.841 36.7212 128.94L34.5673 129.377L34.3422 127.742C33.2847 120.064 31.4018 114.314 28.4683 109.805C25.0465 104.545 19.395 100.171 11.765 96.8763C10.9802 96.5375 10.2921 96.2178 10.2358 96.1663C10.1795 96.1147 10.5962 95.3468 11.1616 94.46C13.5505 90.7133 15.3472 87.0593 16.2664 84.0777C16.4097 83.6133 17.0756 81.1545 17.0756 81.1545C17.9451 77.4513 17.8923 72.959 16.9328 69.0114C16.0056 65.1964 13.6806 60.3005 10.9616 56.4368C10.3902 55.6251 10.3902 55.6249 10.6884 55.499C19.5287 51.7678 23.0285 49.7409 26.2929 46.4614C27.959 44.7877 29.117 43.1522 30.2463 40.8785C32.0748 37.1972 33.0775 33.4101 34.2195 25.8724C34.4847 24.1217 34.7106 22.6759 34.7212 22.6594C34.732 22.643 35.7877 22.8642 37.0673 23.1509C47.6601 25.5243 52.715 26.0552 56.93 25.2368C62.6934 24.1178 66.53 20.9547 73.768 11.3552L74.9355 9.80695L77.9189 12.695C79.5598 14.2834 81.5152 16.1222 82.2643 16.7811Z" fill="#F84C21"/>
<path fill-rule="evenodd" clip-rule="evenodd" d="M73.9506 0.431083C73.0554 1.70952 67.2249 9.44512 65.9383 11.0612C64.2052 13.2383 61.1495 16.3705 60.0184 17.1295C55.4337 20.2058 51.5524 19.9978 33.0436 15.6846C31.049 15.2198 29.3906 14.8661 29.358 14.8986C29.3256 14.9312 29.0497 16.8143 28.7449 19.0834C27.3458 29.5005 26.5863 33.2288 25.1303 36.827C24.3602 38.7305 23.4046 40.2251 22.0292 41.6776C19.0127 44.8635 14.8317 47.0951 4.3075 51.137C2.13208 51.9724 0.335162 52.6731 0.314408 52.694C0.293524 52.7149 1.14289 53.8653 2.20187 55.2503C6.28953 60.5964 8.28219 63.807 9.69191 67.3177C10.9453 70.4391 11.3829 72.887 11.2711 76.1525C11.1691 79.133 10.7233 81.0442 9.33961 84.4322C7.99617 87.7219 5.75744 91.3613 2.1252 96.1605C0.908492 97.7683 -0.0471056 99.1199 0.00179639 99.1642C0.0506984 99.2084 1.11227 99.6103 2.36077 100.057C6.95561 101.702 9.113 102.59 11.7978 103.939C15.5083 105.804 18.0527 107.571 20.3261 109.86C25.1932 114.763 27.3553 120.987 28.6285 133.762C28.806 135.542 28.9824 137.03 29.0207 137.068C29.0588 137.106 30.6204 136.798 32.4909 136.383C41.7974 134.318 45.7234 133.709 49.7096 133.708C54.6285 133.708 58.3395 134.94 62.2884 137.883C63.6647 138.909 66.5792 141.742 68.286 143.712C68.9977 144.534 70.7169 146.726 72.1063 148.584C73.4957 150.442 74.6781 151.979 74.734 152C74.7899 152.02 75.7558 150.887 76.8804 149.48C79.6696 145.993 81.32 144.115 83.5507 141.892C90.9176 134.55 96.8671 132.511 106.258 134.11C109.19 134.609 111.815 135.263 117.002 136.786C118.593 137.253 119.914 137.614 119.937 137.588C119.96 137.562 120.108 136.108 120.265 134.358C121.176 124.191 122.415 118.399 124.669 113.765C125.776 111.489 126.831 110.006 128.454 108.446C131.385 105.629 134.262 104.199 144.192 100.627C146.256 99.8848 147.969 99.2524 147.999 99.2218C148.03 99.1911 146.948 97.2182 145.596 94.8375C141.163 87.0336 139.683 83.9046 138.745 80.3525C138.286 78.6153 138.165 75.4878 138.488 73.7489C139.21 69.8712 141.16 65.2877 146.005 56.0837C147.057 54.0852 147.929 52.4027 147.941 52.3448C147.954 52.287 145.542 51.2833 142.581 50.1145C131.938 45.9132 129.069 44.4882 126.686 42.2208C123.178 38.8835 122.022 34.5806 120.653 19.766C120.426 17.3008 120.219 15.2608 120.193 15.233C120.168 15.2051 117.621 15.5704 114.534 16.0448C105.709 17.4007 103.151 17.6865 99.8405 17.6864C94.7182 17.6861 91.8737 16.534 87.0637 12.5108C86.2433 11.8245 83.0251 8.72885 79.9122 5.6315L74.2524 0L73.9506 0.431083ZM82.2643 16.7811C86.8207 20.7889 90.4941 22.8026 94.8688 23.6904C96.2038 23.9612 96.6823 23.9883 100.1 23.9851C102.915 23.9827 104.335 23.9232 105.742 23.7487C107.82 23.4912 113.661 22.6651 114.177 22.5561L114.504 22.4869L114.735 24.7318C115.908 36.0935 117.572 41.5936 121.044 45.5834C123.942 48.9129 127.82 51.1094 137.911 55.1349C138.518 55.3768 138.996 55.6136 138.975 55.6613C138.953 55.709 138.184 57.2842 137.265 59.1617C134.42 64.9759 133.065 68.4912 132.401 71.778C131.027 78.572 132.382 84.1321 137.824 94.0327C138.3 94.899 138.69 95.6606 138.69 95.7253C138.69 95.79 138.15 96.0413 137.49 96.2837C126.639 100.271 121.523 104.607 118.146 112.682C116.643 116.273 115.416 121.276 114.693 126.757C114.542 127.901 114.395 128.956 114.365 129.102C114.313 129.364 114.287 129.362 112.647 128.95C105.482 127.149 100.041 126.773 95.2076 127.744C91.0887 128.571 86.9119 130.657 82.848 133.919C81.4065 135.076 77.2979 139.082 75.7665 140.825L74.9355 141.771L74.1768 140.825C70.1088 135.755 65.6778 131.973 61.3423 129.869C57.5984 128.053 54.2899 127.342 49.5779 127.342C46.1527 127.342 42.1413 127.841 36.7212 128.94L34.5673 129.377L34.3422 127.742C33.2847 120.064 31.4018 114.314 28.4683 109.805C25.0465 104.545 19.395 100.171 11.765 96.8763C10.9802 96.5375 10.2921 96.2178 10.2358 96.1663C10.1795 96.1147 10.5962 95.3468 11.1616 94.46C13.5505 90.7133 15.3472 87.0593 16.2664 84.0777C16.4097 83.6133 17.0756 81.1545 17.0756 81.1545C17.9451 77.4513 17.8923 72.959 16.9328 69.0114C16.0056 65.1964 13.6806 60.3005 10.9616 56.4368C10.3902 55.6251 10.3902 55.6249 10.6884 55.499C19.5287 51.7678 23.0285 49.7409 26.2929 46.4614C27.959 44.7877 29.117 43.1522 30.2463 40.8785C32.0748 37.1972 33.0775 33.4101 34.2195 25.8724C34.4847 24.1217 34.7106 22.6759 34.7212 22.6594C34.732 22.643 35.7877 22.8642 37.0673 23.1509C47.6601 25.5243 52.715 26.0552 56.93 25.2368C62.6934 24.1178 66.53 20.9547 73.768 11.3552L74.9355 9.80695L77.9189 12.695C79.5598 14.2834 81.5152 16.1222 82.2643 16.7811Z" fill="black" fill-opacity="0.2"/>
<path d="M82.2643 16.7811C86.8207 20.7889 90.4941 22.8026 94.8688 23.6904C96.2038 23.9612 96.6823 23.9883 100.1 23.9851C102.915 23.9827 104.335 23.9232 105.742 23.7487C107.82 23.4912 113.661 22.6651 114.177 22.5561L114.504 22.4869L114.735 24.7318C115.908 36.0935 117.572 41.5936 121.044 45.5834C123.942 48.9129 127.82 51.1094 137.911 55.1349C138.518 55.3768 138.996 55.6136 138.975 55.6613C138.953 55.709 138.184 57.2842 137.265 59.1617C134.42 64.9759 133.065 68.4912 132.401 71.778C131.027 78.572 132.382 84.1321 137.824 94.0327C138.3 94.899 138.69 95.6606 138.69 95.7253C138.69 95.79 138.15 96.0413 137.49 96.2837C126.639 100.271 121.523 104.607 118.146 112.682C116.643 116.273 115.416 121.276 114.693 126.757C114.542 127.901 114.395 128.956 114.365 129.102C114.313 129.364 114.287 129.362 112.647 128.95C105.482 127.149 100.041 126.773 95.2076 127.744C91.0887 128.571 86.9119 130.657 82.848 133.919C81.4065 135.076 77.2979 139.082 75.7665 140.825L74.9355 141.771L74.1768 140.825C70.1088 135.755 65.6778 131.973 61.3423 129.869C57.5984 128.053 54.2899 127.342 49.5779 127.342C46.1527 127.342 42.1413 127.841 36.7212 128.94L34.5673 129.377L34.3422 127.742C33.2847 120.064 31.4018 114.314 28.4683 109.805C25.0465 104.545 19.395 100.171 11.765 96.8763C10.9802 96.5375 10.2921 96.2178 10.2358 96.1663C10.1795 96.1147 10.5962 95.3468 11.1616 94.46C13.5505 90.7133 15.3472 87.0593 16.2664 84.0777C16.4097 83.6133 17.0756 81.1545 17.0756 81.1545C17.9451 77.4513 17.8923 72.959 16.9328 69.0114C16.0056 65.1964 13.6806 60.3005 10.9616 56.4368C10.3902 55.6251 10.3902 55.6249 10.6884 55.499C19.5287 51.7678 23.0285 49.7409 26.2929 46.4614C27.959 44.7877 29.117 43.1522 30.2463 40.8785C32.0748 37.1972 33.0775 33.4101 34.2195 25.8724C34.4847 24.1217 34.7106 22.6759 34.7212 22.6594C34.732 22.643 35.7877 22.8642 37.0673 23.1509C47.6601 25.5243 52.715 26.0552 56.93 25.2368C62.6934 24.1178 66.53 20.9547 73.768 11.3552L74.9355 9.80695L77.9189 12.695C79.5598 14.2834 81.5152 16.1222 82.2643 16.7811Z" fill="#F84C21"/>
<path d="M82.2643 16.7811C86.8207 20.7889 90.4941 22.8026 94.8688 23.6904C96.2038 23.9612 96.6823 23.9883 100.1 23.9851C102.915 23.9827 104.335 23.9232 105.742 23.7487C107.82 23.4912 113.661 22.6651 114.177 22.5561L114.504 22.4869L114.735 24.7318C115.908 36.0935 117.572 41.5936 121.044 45.5834C123.942 48.9129 127.82 51.1094 137.911 55.1349C138.518 55.3768 138.996 55.6136 138.975 55.6613C138.953 55.709 138.184 57.2842 137.265 59.1617C134.42 64.9759 133.065 68.4912 132.401 71.778C131.027 78.572 132.382 84.1321 137.824 94.0327C138.3 94.899 138.69 95.6606 138.69 95.7253C138.69 95.79 138.15 96.0413 137.49 96.2837C126.639 100.271 121.523 104.607 118.146 112.682C116.643 116.273 115.416 121.276 114.693 126.757C114.542 127.901 114.395 128.956 114.365 129.102C114.313 129.364 114.287 129.362 112.647 128.95C105.482 127.149 100.041 126.773 95.2076 127.744C91.0887 128.571 86.9119 130.657 82.848 133.919C81.4065 135.076 77.2979 139.082 75.7665 140.825L74.9355 141.771L74.1768 140.825C70.1088 135.755 65.6778 131.973 61.3423 129.869C57.5984 128.053 54.2899 127.342 49.5779 127.342C46.1527 127.342 42.1413 127.841 36.7212 128.94L34.5673 129.377L34.3422 127.742C33.2847 120.064 31.4018 114.314 28.4683 109.805C25.0465 104.545 19.395 100.171 11.765 96.8763C10.9802 96.5375 10.2921 96.2178 10.2358 96.1663C10.1795 96.1147 10.5962 95.3468 11.1616 94.46C13.5505 90.7133 15.3472 87.0593 16.2664 84.0777C16.4097 83.6133 17.0756 81.1545 17.0756 81.1545C17.9451 77.4513 17.8923 72.959 16.9328 69.0114C16.0056 65.1964 13.6806 60.3005 10.9616 56.4368C10.3902 55.6251 10.3902 55.6249 10.6884 55.499C19.5287 51.7678 23.0285 49.7409 26.2929 46.4614C27.959 44.7877 29.117 43.1522 30.2463 40.8785C32.0748 37.1972 33.0775 33.4101 34.2195 25.8724C34.4847 24.1217 34.7106 22.6759 34.7212 22.6594C34.732 22.643 35.7877 22.8642 37.0673 23.1509C47.6601 25.5243 52.715 26.0552 56.93 25.2368C62.6934 24.1178 66.53 20.9547 73.768 11.3552L74.9355 9.80695L77.9189 12.695C79.5598 14.2834 81.5152 16.1222 82.2643 16.7811Z" fill="#FFED27"/>
<path d="M101.603 66.6543C108.796 70.8135 112.392 72.893 112.392 76.0124C112.392 79.1318 108.796 81.2113 101.603 85.3705L68.3086 104.623C61.1161 108.782 57.5198 110.862 54.8226 109.302C52.1254 107.743 52.1254 103.584 52.1254 95.2652V56.7596C52.1254 48.4413 52.1254 44.2821 54.8226 42.7225C57.5198 41.1628 61.1161 43.2423 68.3086 47.4015L101.603 66.6543Z" fill="#231F20"/>
</svg>
