<svg width="36" height="36" viewBox="0 0 36 36" fill="none" xmlns="http://www.w3.org/2000/svg">
<rect x="-1" y="1" width="34" height="34" rx="5" transform="matrix(-1 0 0 1 34 0)" fill="#FFED27" stroke="#F84C21" stroke-width="2"/>
<g clip-path="url(#clip0_180_420)">
<path fill-rule="evenodd" clip-rule="evenodd" d="M18.7765 7.01051C18.7555 7.01426 18.6522 7.02993 18.5471 7.04537C18.4419 7.06079 18.2354 7.11222 18.0882 7.15963C17.7488 7.26892 8.16524 11.0605 7.8378 11.215C7.54116 11.355 7.37756 11.4786 7.24812 11.6604C7.08569 11.8886 7.04765 12.0392 7.02228 12.5541C6.99197 13.1694 6.99286 22.0776 7.02328 22.6587C7.04451 23.0643 7.05673 23.1497 7.12182 23.3475C7.18484 23.5391 7.21804 23.598 7.34064 23.7358C7.42014 23.8251 7.56765 23.9541 7.66846 24.0225C7.85945 24.152 10.492 25.5988 12.2115 26.5192C12.7583 26.8119 13.4984 27.2202 13.8559 27.4265C14.6754 27.8993 14.7284 27.9282 15.6533 28.4046C16.5187 28.8506 16.636 28.9015 16.9447 28.9658C17.1522 29.0089 17.1792 29.0096 17.4036 28.9771C17.7199 28.9312 17.8474 28.8919 18.6873 28.5796C19.8397 28.1513 19.9734 28.099 20.8162 27.7458C21.2579 27.5607 22.1356 27.2091 22.7666 26.9641C23.8329 26.5504 27.3883 25.1467 27.8783 24.946C28.3931 24.7351 28.6196 24.5832 28.7798 24.341C28.895 24.1671 28.9429 24.0057 28.974 23.6867C29.0084 23.3344 29.0088 13.5486 28.9746 13.1725C28.9404 12.7988 28.8475 12.512 28.7068 12.3458C28.5729 12.1876 28.4203 12.0588 28.2223 11.9369C27.9363 11.7609 19.7845 7.31635 19.564 7.21621C19.3934 7.13873 18.8679 6.98613 18.8229 7.00101C18.8184 7.0025 18.7976 7.00676 18.7765 7.01051ZM18.1392 8.26232C17.5684 8.35727 17.2022 8.4845 16.9232 8.68481C16.7592 8.80252 16.6513 8.98658 16.6764 9.1059C16.7295 9.35821 16.9639 9.54867 17.4474 9.73235C18.0707 9.96917 18.6917 9.97407 19.4012 9.74782C20.2284 9.48399 20.4696 9.10872 20.047 8.74312C19.8098 8.53786 19.5412 8.41131 19.1394 8.31542C18.9475 8.26961 18.3014 8.2353 18.1392 8.26232ZM11.9438 10.7159C11.3359 10.8187 10.9342 10.9647 10.6735 11.1775C10.3883 11.4103 10.3932 11.6726 10.6873 11.9047C10.8101 12.0017 11.2204 12.1974 11.4348 12.2611C12.0945 12.4574 12.8678 12.3818 13.5882 12.0506C13.8828 11.9151 14.0344 11.7462 14.0344 11.5534C14.0344 11.2456 13.581 10.9315 12.9001 10.7674C12.7253 10.7253 12.0906 10.6911 11.9438 10.7159ZM23.6001 11.1456C23.2936 11.1618 23.0458 11.2076 22.7841 11.2964C21.7692 11.641 21.6878 12.1594 22.5867 12.5547C22.9965 12.7349 23.2592 12.7931 23.6717 12.7953C24.167 12.798 24.5137 12.7241 25.0115 12.5097C25.4903 12.3035 25.6405 12.0651 25.4745 11.7758C25.3801 11.6116 25.0213 11.3871 24.6689 11.272C24.3333 11.1623 24.0096 11.1241 23.6001 11.1456ZM17.0596 13.6314C16.4761 13.7311 15.9144 14.007 15.7905 14.2547C15.7647 14.3061 15.7435 14.3824 15.7431 14.4243C15.7415 14.6533 16.062 14.9115 16.5839 15.1016C17.1489 15.3073 17.7549 15.3108 18.4109 15.1122C19.3451 14.8293 19.5779 14.447 19.0657 14.0372C18.9073 13.9104 18.4934 13.7283 18.2156 13.663C17.9336 13.5968 17.3546 13.581 17.0596 13.6314ZM26.7251 15.0565C26.3048 15.1155 25.7901 15.4086 25.5017 15.7533C25.3554 15.9281 25.1859 16.262 25.1247 16.4964C25.0642 16.7274 25.0531 17.1326 25.102 17.3143C25.1414 17.4603 25.2401 17.6413 25.3251 17.7236C25.5407 17.9321 25.9925 17.9315 26.4466 17.722C26.6885 17.6105 27.0061 17.3789 27.1494 17.2098C27.5382 16.7511 27.6967 16.1402 27.5676 15.5982C27.4717 15.1962 27.1597 14.9955 26.7251 15.0565ZM20.3572 17.5451C19.8621 17.665 19.3894 18.01 19.1231 18.4456C18.7729 19.0183 18.7639 19.8477 19.1043 20.1774C19.4451 20.5074 20.2755 20.3109 20.835 19.7679C21.5397 19.0839 21.5995 17.7944 20.9381 17.5439C20.8194 17.499 20.5451 17.4995 20.3572 17.5451ZM26.7056 18.2171C26.5802 18.2389 26.3844 18.3027 26.234 18.3706C25.5252 18.6905 25.0969 19.3078 25.0555 20.0692C25.034 20.4669 25.1201 20.7416 25.3203 20.9142C25.4747 21.0473 25.564 21.0779 25.7981 21.0781C26.267 21.0786 26.8217 20.7968 27.1749 20.3785C27.4768 20.0208 27.6238 19.6126 27.6231 19.1327C27.6226 18.6909 27.4806 18.3961 27.2068 18.2683C27.109 18.2226 26.8345 18.1946 26.7056 18.2171ZM11.1534 18.8741C10.9984 18.94 10.9072 19.0229 10.8231 19.1748C10.722 19.3572 10.6849 19.524 10.6867 19.7882C10.6903 20.3056 10.9064 20.8782 11.2759 21.3492C11.5134 21.652 11.7355 21.8297 12.0364 21.9575C12.415 22.1184 12.7946 22.0175 12.9697 21.7096C13.0581 21.5542 13.0904 21.3975 13.0908 21.1238C13.0913 20.6298 12.8893 20.0589 12.5443 19.5799C12.387 19.3614 11.96 18.9885 11.7787 18.9113C11.5676 18.8213 11.3133 18.8062 11.1534 18.8741ZM20.523 20.6715C20.151 20.721 19.728 20.944 19.4005 21.2633C19.0334 21.6213 18.844 22.0716 18.8425 22.5893C18.8412 23.0611 18.9785 23.3468 19.2737 23.4865C19.5099 23.5984 19.9799 23.5264 20.3572 23.3205C20.568 23.2056 20.8522 22.9743 20.9907 22.8051C21.5681 22.0993 21.5561 20.9389 20.9691 20.7176C20.869 20.6799 20.639 20.6561 20.523 20.6715ZM26.7005 21.4204C26.185 21.5012 25.6134 21.8895 25.337 22.3462C25.2353 22.5144 25.1565 22.7105 25.11 22.9111C25.0642 23.1082 25.0601 23.5246 25.102 23.6802C25.1412 23.8255 25.256 24.0336 25.3327 24.0983C25.5589 24.2896 25.9523 24.293 26.3877 24.1078C27.0769 23.8145 27.5104 23.2564 27.5987 22.548C27.6635 22.0296 27.5062 21.6138 27.19 21.4675C27.08 21.4165 26.86 21.3954 26.7005 21.4204ZM20.4559 23.8878C19.8443 23.9912 19.2335 24.4823 18.9953 25.062C18.8485 25.4195 18.8127 25.9332 18.9143 26.2271C19.0664 26.6675 19.4599 26.8095 20.0206 26.6264C20.6014 26.4368 21.0811 25.9937 21.2713 25.4711C21.4028 25.1098 21.4333 24.7708 21.3622 24.4587C21.2561 23.9922 20.9562 23.8033 20.4559 23.8878Z" fill="#231F20"/>
</g>
<defs>
<clipPath id="clip0_180_420">
<rect width="22" height="22" fill="white" transform="translate(7 7)"/>
</clipPath>
</defs>
</svg>
