<svg width="128" height="128" viewBox="0 0 128 128" fill="none" xmlns="http://www.w3.org/2000/svg">
<path fill-rule="evenodd" clip-rule="evenodd" d="M68.518 0.0611244C68.3956 0.0829435 67.7949 0.174125 67.183 0.263961C66.5711 0.353661 65.3696 0.652934 64.5129 0.92877C62.5384 1.56462 6.77959 23.6247 4.87449 24.5237C3.14859 25.3383 2.19671 26.0572 1.44361 27.115C0.498551 28.4428 0.277237 29.3188 0.129641 32.3149C-0.0467314 35.8947 -0.0415393 87.7243 0.135427 91.1052C0.258991 93.4649 0.330043 93.9619 0.708747 95.1129C1.07544 96.2277 1.26857 96.5702 1.98192 97.3719C2.44444 97.8916 3.30271 98.6422 3.88924 99.0399C5.00043 99.7934 20.3171 108.211 30.3212 113.566C33.5031 115.269 37.8086 117.645 39.889 118.845C44.6571 121.596 44.9651 121.764 50.3467 124.536C55.3816 127.131 56.0641 127.427 57.86 127.801C59.0676 128.052 59.2246 128.056 60.5301 127.867C62.3705 127.6 63.1123 127.371 67.9988 125.554C74.7035 123.062 75.4818 122.758 80.385 120.703C82.9549 119.626 88.0614 117.58 91.7327 116.155C97.9371 113.748 118.623 105.581 121.474 104.413C124.469 103.186 125.787 102.302 126.719 100.893C127.389 99.8813 127.668 98.9424 127.849 97.0865C128.049 95.0365 128.051 38.1007 127.852 35.913C127.653 33.7382 127.113 32.0699 126.294 31.1027C125.515 30.1825 124.627 29.4333 123.475 28.724C121.811 27.6999 74.3827 1.84059 73.0998 1.25794C72.107 0.807149 69.0498 -0.0807002 68.7878 0.00590278C68.7617 0.0145227 68.6404 0.0393053 68.518 0.0611244ZM64.8096 7.34439C61.4891 7.89687 59.3585 8.6371 57.7347 9.80254C56.7806 10.4874 56.1531 11.5583 56.2992 12.2525C56.6082 13.7205 57.9718 14.8286 60.7848 15.8973C64.4116 17.2752 68.0246 17.3037 72.1523 15.9873C76.9651 14.4523 78.3686 12.2689 75.9101 10.1418C74.5297 8.94755 72.9671 8.21123 70.6294 7.65336C69.5126 7.38682 65.7538 7.18721 64.8096 7.34439ZM28.7637 21.62C25.2269 22.218 22.8896 23.0672 21.3731 24.3052C19.7137 25.6599 19.7425 27.1858 21.4531 28.5364C22.1679 29.101 24.5552 30.2394 25.8022 30.6103C29.6407 31.7524 34.14 31.3125 38.3311 29.3853C40.0455 28.5971 40.9273 27.6143 40.9273 26.4923C40.9273 24.7019 38.2892 22.8739 34.3281 21.9194C33.3108 21.6743 29.6178 21.4756 28.7637 21.62ZM96.5826 24.12C94.7993 24.2139 93.3573 24.4803 91.8346 24.9974C85.9297 27.0022 85.4565 30.0186 90.6861 32.3181C93.0704 33.3665 94.5991 33.7056 96.9987 33.7184C99.8807 33.7338 101.898 33.3037 104.794 32.0565C107.58 30.8566 108.454 29.4699 107.488 27.7867C106.939 26.8309 104.851 25.5252 102.801 24.8553C100.848 24.2171 98.9652 23.9945 96.5826 24.12ZM58.5283 38.5829C55.1336 39.163 51.8656 40.7679 51.1445 42.209C50.9948 42.5083 50.871 42.9523 50.8692 43.1961C50.8594 44.5283 52.7241 46.0303 55.761 47.1364C59.0482 48.3336 62.5738 48.354 66.3909 47.1982C71.8261 45.5523 73.1807 43.3281 70.2006 40.9435C69.2788 40.2061 66.8707 39.1463 65.2546 38.7668C63.6138 38.3816 60.2448 38.2895 58.5283 38.5829ZM114.764 46.8741C112.319 47.2173 109.324 48.923 107.646 50.9282C106.795 51.9454 105.809 53.8882 105.453 55.2517C105.101 56.5959 105.036 58.9535 105.321 60.0102C105.55 60.8602 106.124 61.9133 106.619 62.3918C107.873 63.6049 110.502 63.6013 113.144 62.3828C114.551 61.7339 116.399 60.3865 117.233 59.4026C119.495 56.7337 120.417 53.1796 119.666 50.026C119.108 47.6871 117.293 46.5194 114.764 46.8741ZM77.7149 61.3531C74.8343 62.0512 72.084 64.0579 70.5342 66.5924C68.4966 69.9245 68.4444 74.7504 70.4252 76.6685C72.4078 78.5886 77.2393 77.4454 80.4943 74.2859C84.5946 70.3061 84.9425 62.8038 81.0943 61.3465C80.4039 61.085 78.8081 61.088 77.7149 61.3531ZM114.651 65.2629C113.921 65.3902 112.782 65.761 111.907 66.1561C107.783 68.0174 105.291 71.6088 105.05 76.0392C104.925 78.3526 105.426 79.9509 106.591 80.9553C107.489 81.7295 108.009 81.9076 109.371 81.9091C112.099 81.9121 115.326 80.2723 117.381 77.8386C119.138 75.7575 119.993 73.3822 119.989 70.5905C119.986 68.0198 119.16 66.3048 117.567 65.5611C116.998 65.2954 115.401 65.132 114.651 65.2629ZM24.1653 69.0858C23.2632 69.469 22.7329 69.9516 22.2433 70.835C21.6551 71.8964 21.4393 72.8669 21.45 74.4042C21.4706 77.4145 22.728 80.746 24.8777 83.4864C26.2596 85.248 27.5521 86.2817 29.3029 87.0256C31.5057 87.9615 33.7142 87.3748 34.7328 85.5831C35.2469 84.6788 35.4353 83.7675 35.4371 82.1751C35.4405 79.3005 34.2649 75.9793 32.2578 73.192C31.3425 71.921 28.8581 69.7514 27.8031 69.3019C26.5753 68.7786 25.0953 68.6907 24.1653 69.0858ZM78.6791 79.5434C76.5147 79.8311 74.0536 81.1286 72.1484 82.9867C70.0128 85.0693 68.9104 87.6893 68.9019 90.7011C68.8942 93.4464 69.693 95.1086 71.4106 95.9217C72.7849 96.5724 75.5194 96.1534 77.7149 94.9559C78.9413 94.2869 80.5949 92.9414 81.4002 91.9568C84.7596 87.8505 84.69 81.0989 81.275 79.8115C80.6925 79.592 79.354 79.4537 78.6791 79.5434ZM114.621 83.9006C111.622 84.3709 108.296 86.6296 106.688 89.2869C106.096 90.2658 105.638 91.4066 105.367 92.5735C105.101 93.7204 105.077 96.1433 105.321 97.0487C105.549 97.8936 106.217 99.1043 106.663 99.481C107.979 100.594 110.268 100.614 112.801 99.5363C116.811 97.8301 119.333 94.5825 119.847 90.4611C120.224 87.4448 119.309 85.0258 117.469 84.1744C116.829 83.8781 115.549 83.7551 114.621 83.9006ZM78.2887 98.2565C74.7305 98.8577 71.1766 101.715 69.791 105.088C68.9366 107.168 68.7287 110.157 69.3195 111.867C70.2043 114.429 72.4942 115.255 75.7563 114.19C79.1352 113.087 81.9263 110.509 83.0332 107.468C83.7983 105.366 83.9753 103.394 83.562 101.578C82.9447 98.8639 81.1995 97.7646 78.2887 98.2565Z" fill="black" fill-opacity="0.99"/>
</svg>
