<svg width="36" height="36" viewBox="0 0 36 36" fill="none" xmlns="http://www.w3.org/2000/svg">
<rect x="-1" y="1" width="34" height="34" rx="5" transform="matrix(-1 0 0 1 34 0)" fill="#FFED27"/>
<rect x="-1" y="1" width="34" height="34" rx="5" transform="matrix(-1 0 0 1 34 0)" stroke="#F84C21" stroke-width="2"/>
<path d="M8.375 7C7.61497 7 7 7.61359 7 8.375V27.625C7 28.3837 7.61497 29 8.375 29H27.625C28.385 29 29 28.3837 29 27.625V8.375C29 7.61359 28.385 7 27.625 7H8.375ZM18 9.2002C19.215 9.2002 20.2002 10.1854 20.2002 11.4004V20.2002H25.6211L18 26.7998L10.3789 20.2002H15.7998V11.4004C15.7998 10.1854 16.785 9.2002 18 9.2002Z" fill="#231F20"/>
</svg>
