<svg width="512" height="512" viewBox="0 0 512 512" fill="none" xmlns="http://www.w3.org/2000/svg">
<path fill-rule="evenodd" clip-rule="evenodd" d="M234.5 0.618688C172.38 7.06569 118.437 32.0147 76.22 73.8247C32.976 116.652 6.48805 172.783 0.903046 233.429C-0.531954 249.019 0.255046 278.232 2.49605 292.5C11.403 349.231 35.947 398.031 75.25 437.158C115.614 477.34 165.961 502.046 224 510.153C236.694 511.925 276.661 511.925 288.5 510.152C347.612 501.299 396.989 476.963 436.976 436.976C476.223 397.73 501.08 348.058 509.488 292.078C510.32 286.542 511 280.237 511 278.066C511 275.894 511.45 273.84 512 273.5C512.607 273.125 513 265.803 513 254.882C513 243.137 512.653 237.097 512 237.5C511.394 237.874 511 236.47 511 233.937C511 221.859 504.955 192.777 498.447 173.54C473.801 100.7 416.073 41.7687 343.34 15.1997C330.144 10.3787 307.689 4.69369 293 2.45369C282.915 0.915688 243.539 -0.319312 234.5 0.618688ZM248.637 69.4647C243.708 71.2217 239.253 75.4087 236.896 80.4997C235.134 84.3047 235.043 89.2167 235.022 181.493L235 278.485L209.75 253.34C195.863 239.511 182.925 227.387 181 226.399C178.913 225.327 175.28 224.592 172 224.577C161.148 224.526 152.104 232.698 151.221 243.353C150.35 253.852 149.353 252.613 197.862 301.322C224.37 327.939 244.125 346.991 246.5 348.23C251.868 351.031 260.132 351.031 265.5 348.23C267.875 346.991 287.43 328.134 313.627 301.822C362.086 253.15 361.992 253.267 360.623 243.25C358.646 228.79 343.041 220.264 330.49 226.788C328.281 227.937 315.79 239.606 302.508 252.931C289.312 266.169 278.175 277 277.758 277C277.341 277 276.99 233.688 276.978 180.75C276.957 89.8137 276.856 84.2787 275.135 80.4907C270.582 70.4697 259.156 65.7147 248.637 69.4647ZM0.415046 256C0.415046 266.175 0.564046 270.337 0.745046 265.25C0.927046 260.162 0.927046 251.837 0.745046 246.75C0.564046 241.662 0.415046 245.825 0.415046 256ZM167.34 378.944C154.777 381.991 147.81 395.36 152.453 407.515C154.573 413.066 160.651 418.423 166.501 419.896C172.642 421.442 339.358 421.442 345.499 419.896C363.607 415.336 366.479 390.271 349.956 381L345.5 378.5L258 378.339C209.875 378.251 169.078 378.523 167.34 378.944Z" fill="black"/>
</svg>
