<svg width="36" height="36" viewBox="0 0 36 36" fill="none" xmlns="http://www.w3.org/2000/svg">
<rect x="-1" y="1" width="34" height="34" rx="5" transform="matrix(-1 0 0 1 34 0)" fill="#FFED27" stroke="#F84C21" stroke-width="2"/>
<g clip-path="url(#clip0_180_308)">
<path d="M9.75 18.2523V15.25C9.75 10.6939 13.4439 7 18 7C22.5561 7 26.25 10.6939 26.25 15.25V18.2523C27.8491 18.8205 29 20.331 29 22.125V24.875C29 27.1537 27.1537 29 24.875 29H22.125C21.365 29 20.75 28.385 20.75 27.625V19.375C20.75 18.615 21.365 18 22.125 18H23.5V15.25C23.5 12.2126 21.0374 9.75 18 9.75C14.9626 9.75 12.5 12.2126 12.5 15.25V18H13.875C14.635 18 15.25 18.615 15.25 19.375V27.625C15.25 28.385 14.635 29 13.875 29H11.125C8.84628 29 7 27.1537 7 24.875V22.125C7 20.331 8.15088 18.8205 9.75 18.2523Z" fill="#231F20"/>
</g>
<defs>
<clipPath id="clip0_180_308">
<rect width="22" height="22" fill="white" transform="matrix(-1 0 0 1 29 7)"/>
</clipPath>
</defs>
</svg>
