<svg width="36" height="36" viewBox="0 0 36 36" fill="none" xmlns="http://www.w3.org/2000/svg">
<rect x="-1" y="1" width="34" height="34" rx="5" transform="matrix(-1 0 0 1 34 0)" fill="#FFED27" stroke="#F84C21" stroke-width="2"/>
<g clip-path="url(#clip0_180_295)">
<path d="M23.5 18C20.9408 18 18.8085 16.2438 18.1946 13.875H8.375C7.61497 13.875 7 13.26 7 12.5C7 11.74 7.61497 11.125 8.375 11.125H18.1946C18.8085 8.75622 20.9408 7 23.5 7C26.5374 7 29 9.46262 29 12.5C29 15.5374 26.5374 18 23.5 18Z" fill="#231F20"/>
<path d="M12.5 18C15.0592 18 17.1915 19.7562 17.8054 22.125H27.625C28.385 22.125 29 22.74 29 23.5C29 24.26 28.385 24.875 27.625 24.875H17.8054C17.1915 27.2438 15.0592 29 12.5 29C9.46262 29 7 26.5374 7 23.5C7 20.4626 9.46262 18 12.5 18Z" fill="#231F20"/>
</g>
<defs>
<clipPath id="clip0_180_295">
<rect width="22" height="22" fill="white" transform="matrix(-1 0 0 1 29 7)"/>
</clipPath>
</defs>
</svg>
