<svg width="27" height="28" viewBox="0 0 27 28" fill="none" xmlns="http://www.w3.org/2000/svg">
<path d="M0 9.5002C0 8.39563 0.895431 7.5002 2 7.5002H5.38305C5.785 7.5002 6.17763 7.37908 6.50974 7.15264L13.8733 2.13189C15.2009 1.22668 17 2.17748 17 3.78433V23.5725C17 25.2071 15.1456 26.1514 13.8237 25.19L6.52597 19.8827C6.18413 19.6341 5.77232 19.5002 5.34965 19.5002H2C0.89543 19.5002 0 18.6048 0 17.5002V9.5002Z" fill="#231F20"/>
<path d="M19.0332 8.70074C18.7397 8.02358 19.262 7 20 7C20 7 22 7 22 14C22 21 20 21 20 21C19.262 21 18.7397 19.9764 19.0332 19.2993C19.5219 18.172 20 16.4446 20 14C20 11.5554 19.5219 9.82795 19.0332 8.70074Z" fill="#231F20"/>
<path d="M23.065 6.6831C22.7416 6.00965 23.2529 5 24 5C24 5 26.5 5 26.5 14C26.5 23 24 23 24 23C23.2529 23 22.7416 21.9904 23.065 21.3169C23.7451 19.9004 24.5 17.5326 24.5 14C24.5 10.4674 23.7451 8.09959 23.065 6.6831Z" fill="#231F20"/>
</svg>
